<?xml version="1.0" encoding="utf-8"?>
<!-- Generator: Adobe Illustrator 28.1.0, SVG Export Plug-In . SVG Version: 6.00 Build 0)  -->
<svg version="1.1" id="Layer_1" xmlns="http://www.w3.org/2000/svg" xmlns:xlink="http://www.w3.org/1999/xlink" x="0px" y="0px"
	 viewBox="0 0 200 187" style="enable-background:new 0 0 200 187;" xml:space="preserve">
<style type="text/css">
	.st0{filter:url(#Adobe_OpacityMaskFilter);}
	.st1{mask:url(#mask0_00000111911051226524389510000013198511596398101422_);}
	.st2{display:none;}
	.st3{clip-path:url(#SVGID_00000083773218372026972160000010711080113108084113_);}
</style>
<defs>
	<filter id="Adobe_OpacityMaskFilter" filterUnits="userSpaceOnUse" x="-2" y="-2" width="202" height="189">
		<feColorMatrix  type="matrix" values="1 0 0 0 0  0 1 0 0 0  0 0 1 0 0  0 0 0 1 0"/>
	</filter>
</defs>
<mask maskUnits="userSpaceOnUse" x="-2" y="-2" width="202" height="189" id="mask0_00000111911051226524389510000013198511596398101422_">
	<path class="st0" d="M190.3,36.5c16.3,25.6,11,66.3-8,97.7c-19,31.4-51.5,53.4-82.1,52.2c-30.6-1.1-59.2-25.3-78.5-57
		C2.5,97.9-7.5,59.1,6.7,34.5C21,10.1,59.7-0.1,98,0C136.2,0.3,174.2,10.9,190.3,36.5z"/>
</mask>
<g class="st1">
	<path class="st2" d="M190.3,36.5c16.3,25.6,11,66.3-8,97.7c-19,31.4-51.5,53.4-82.1,52.2c-30.6-1.1-59.2-25.3-78.5-57
		C2.5,97.9-7.5,59.1,6.7,34.5C21,10.1,59.7-0.1,98,0C136.2,0.3,174.2,10.9,190.3,36.5z"/>
	<circle cx="100" cy="93.5" r="93.5"/>
	<g>
		<defs>
			<polygon id="SVGID_1_" points="1,1 2,1 1,2 			"/>
		</defs>
		<defs>
			<polygon id="SVGID_00000101788949736310753820000009900280961242564504_" points="-1,-1 -2,-1 -1,-2 			"/>
		</defs>
		<clipPath id="SVGID_00000095335176029019498840000008504983169882419860_">
			<use xlink:href="#SVGID_1_"  style="overflow:visible;"/>
		</clipPath>
		
			<clipPath id="SVGID_00000091695880833268134350000009751620834342788017_" style="clip-path:url(#SVGID_00000095335176029019498840000008504983169882419860_);">
			<use xlink:href="#SVGID_00000101788949736310753820000009900280961242564504_"  style="overflow:visible;"/>
		</clipPath>
	</g>
</g>
</svg>
